<svg width="48" height="48" viewBox="0 0 48 48" fill="none" xmlns="http://www.w3.org/2000/svg">
<path d="M24 33C21.6131 33 19.3239 32.0518 17.636 30.364C15.9482 28.6761 15 26.3869 15 24C15 21.6131 15.9482 19.3239 17.636 17.636C19.3239 15.9482 21.6131 15 24 15C26.3869 15 28.6761 15.9482 30.364 17.636C32.0518 19.3239 33 21.6131 33 24C33 26.3869 32.0518 28.6761 30.364 30.364C28.6761 32.0518 26.3869 33 24 33ZM24 36C27.1826 36 30.2348 34.7357 32.4853 32.4853C34.7357 30.2348 36 27.1826 36 24C36 20.8174 34.7357 17.7652 32.4853 15.5147C30.2348 13.2643 27.1826 12 24 12C20.8174 12 17.7652 13.2643 15.5147 15.5147C13.2643 17.7652 12 20.8174 12 24C12 27.1826 13.2643 30.2348 15.5147 32.4853C17.7652 34.7357 20.8174 36 24 36V36ZM24 0C24.3978 0 24.7794 0.158035 25.0607 0.43934C25.342 0.720644 25.5 1.10218 25.5 1.5V7.5C25.5 7.89782 25.342 8.27936 25.0607 8.56066C24.7794 8.84196 24.3978 9 24 9C23.6022 9 23.2206 8.84196 22.9393 8.56066C22.658 8.27936 22.5 7.89782 22.5 7.5V1.5C22.5 1.10218 22.658 0.720644 22.9393 0.43934C23.2206 0.158035 23.6022 0 24 0V0ZM24 39C24.3978 39 24.7794 39.158 25.0607 39.4393C25.342 39.7206 25.5 40.1022 25.5 40.5V46.5C25.5 46.8978 25.342 47.2794 25.0607 47.5607C24.7794 47.842 24.3978 48 24 48C23.6022 48 23.2206 47.842 22.9393 47.5607C22.658 47.2794 22.5 46.8978 22.5 46.5V40.5C22.5 40.1022 22.658 39.7206 22.9393 39.4393C23.2206 39.158 23.6022 39 24 39V39ZM48 24C48 24.3978 47.842 24.7794 47.5607 25.0607C47.2794 25.342 46.8978 25.5 46.5 25.5H40.5C40.1022 25.5 39.7206 25.342 39.4393 25.0607C39.158 24.7794 39 24.3978 39 24C39 23.6022 39.158 23.2206 39.4393 22.9393C39.7206 22.658 40.1022 22.5 40.5 22.5H46.5C46.8978 22.5 47.2794 22.658 47.5607 22.9393C47.842 23.2206 48 23.6022 48 24ZM9 24C9 24.3978 8.84196 24.7794 8.56066 25.0607C8.27936 25.342 7.89782 25.5 7.5 25.5H1.5C1.10218 25.5 0.720644 25.342 0.43934 25.0607C0.158035 24.7794 0 24.3978 0 24C0 23.6022 0.158035 23.2206 0.43934 22.9393C0.720644 22.658 1.10218 22.5 1.5 22.5H7.5C7.89782 22.5 8.27936 22.658 8.56066 22.9393C8.84196 23.2206 9 23.6022 9 24ZM40.971 7.029C41.2522 7.31029 41.4102 7.69175 41.4102 8.0895C41.4102 8.48725 41.2522 8.86871 40.971 9.15L36.729 13.395C36.5895 13.5343 36.424 13.6447 36.2419 13.72C36.0597 13.7953 35.8645 13.834 35.6674 13.8338C35.2694 13.8336 34.8878 13.6752 34.6065 13.3935C34.4672 13.254 34.3568 13.0885 34.2815 12.9064C34.2062 12.7242 34.1675 12.529 34.1677 12.3319C34.1679 11.9339 34.3263 11.5523 34.608 11.271L38.85 7.029C39.1313 6.74779 39.5128 6.58982 39.9105 6.58982C40.3082 6.58982 40.6897 6.74779 40.971 7.029V7.029ZM13.392 34.608C13.6732 34.8893 13.8312 35.2708 13.8312 35.6685C13.8312 36.0662 13.6732 36.4477 13.392 36.729L9.15 40.971C8.8671 41.2442 8.48819 41.3954 8.0949 41.392C7.7016 41.3886 7.32538 41.2308 7.04727 40.9527C6.76916 40.6746 6.61141 40.2984 6.60799 39.9051C6.60457 39.5118 6.75576 39.1329 7.029 38.85L11.271 34.608C11.5523 34.3268 11.9338 34.1688 12.3315 34.1688C12.7292 34.1688 13.1107 34.3268 13.392 34.608V34.608ZM40.971 40.971C40.6897 41.2522 40.3082 41.4102 39.9105 41.4102C39.5128 41.4102 39.1313 41.2522 38.85 40.971L34.608 36.729C34.3348 36.4461 34.1836 36.0672 34.187 35.6739C34.1904 35.2806 34.3482 34.9044 34.6263 34.6263C34.9044 34.3482 35.2806 34.1904 35.6739 34.187C36.0672 34.1836 36.4461 34.3348 36.729 34.608L40.971 38.85C41.2522 39.1313 41.4102 39.5128 41.4102 39.9105C41.4102 40.3082 41.2522 40.6897 40.971 40.971ZM13.392 13.395C13.1107 13.6762 12.7292 13.8342 12.3315 13.8342C11.9338 13.8342 11.5523 13.6762 11.271 13.395L7.029 9.15C6.88573 9.01163 6.77146 8.84611 6.69285 8.66311C6.61423 8.4801 6.57286 8.28327 6.57112 8.0841C6.56939 7.88493 6.60735 7.68741 6.68277 7.50307C6.75819 7.31872 6.86957 7.15125 7.01041 7.01041C7.15125 6.86957 7.31872 6.75819 7.50307 6.68277C7.68741 6.60735 7.88493 6.56939 8.0841 6.57112C8.28327 6.57286 8.4801 6.61423 8.66311 6.69285C8.84611 6.77146 9.01163 6.88573 9.15 7.029L13.392 11.271C13.5317 11.4103 13.6425 11.5759 13.7181 11.7581C13.7938 11.9403 13.8327 12.1357 13.8327 12.333C13.8327 12.5303 13.7938 12.7257 13.7181 12.9079C13.6425 13.0901 13.5317 13.2557 13.392 13.395V13.395Z" fill="#202020"/>
</svg>
