<?xml version="1.0" encoding="utf-8"?><svg version="1.1" id="Layer_1" xmlns="http://www.w3.org/2000/svg" xmlns:xlink="http://www.w3.org/1999/xlink" x="0px" y="0px" viewBox="0 0 122.88 84.76" style="enable-background:new 0 0 122.88 84.76" xml:space="preserve"><g><path d="M20.63,84.63c-2.13-0.51-5.22-3.19-8.64-7.5C5.04,68.39,1.27,58.58,0.16,46.36c-0.21-2.35-0.21-8.3,0-10.47 C1.18,25.63,4.77,16.8,11.36,8.34c2.02-2.59,5.36-5.98,6.96-7.06c2.27-1.53,3.69-1.65,5.06-0.44c0.56,0.5,0.69,0.73,0.76,1.36 c0.13,1.2-0.48,2.13-3.33,5.08c-3.98,4.11-5.82,6.41-7.86,9.79c-4.62,7.69-6.6,15.78-6.32,25.84c0.15,5.36,0.72,9.3,1.99,13.69 c1.14,3.95,2.5,7.14,4.55,10.62c2.05,3.49,3.78,5.7,7.23,9.25c3.03,3.12,3.78,4.2,3.78,5.44c0,1.24-0.87,2.35-2.1,2.69 C21.4,84.8,21.35,84.8,20.63,84.63L20.63,84.63L20.63,84.63z M100.57,84.68c-0.64-0.14-1.8-1.38-1.93-2.07 c-0.21-1.12,0.46-2.12,3.57-5.34c1.53-1.58,3.42-3.67,4.19-4.63c5.64-7.04,8.78-14.87,9.62-24.01c0.26-2.82,0.13-10.08-0.23-12.81 c-0.75-5.71-2.14-10.37-4.55-15.28c-2.3-4.7-4.69-8.03-8.71-12.18c-2.7-2.79-3.5-3.8-3.77-4.82c-0.27-0.99-0.07-1.73,0.67-2.57 c1.02-1.16,2.19-1.26,4.01-0.36c2.21,1.1,5.07,3.96,8.39,8.41c6.68,8.94,10.13,18.77,10.96,31.26c0.7,10.61-1.87,21.35-7.25,30.25 c-3.71,6.14-9.38,12.43-12.39,13.77C102.33,84.64,101.2,84.81,100.57,84.68L100.57,84.68L100.57,84.68z M33.85,78.21 c-1.81-0.55-2.85-2.35-2.42-4.17c0.27-1.12,1.4-2.28,2.49-2.55c1.1-0.28,58.23-0.28,59.33,0c1.13,0.29,2.24,1.44,2.49,2.59 c0.32,1.51-0.35,3.05-1.67,3.81l-0.7,0.4l-29.54,0.03C47.59,78.33,34.1,78.28,33.85,78.21L33.85,78.21z M56.35,64.32 c-5.49-2-10.05-5.88-12.39-10.55c-1.3-2.6-2.05-5.74-2.05-8.56c0-3.81,1.49-7.44,6.03-14.69c3.38-5.4,3.96-6.39,4.95-8.46 c1.32-2.76,1.76-4.4,1.79-6.72c0.03-2.21-0.31-3.53-1.32-5.24C52.63,8.88,51,7.05,50.34,6.7c-1.08-0.56-1.3-1.31-0.54-1.82 c1.21-0.79,4.52-0.29,7.56,1.15c3.44,1.63,5.97,3.97,7.62,7.03c1.27,2.36,1.78,4.18,2.65,9.35c0.96,5.74,1.91,7.57,3.82,7.35 c1.02-0.12,1.65-0.5,2.08-1.26c0.68-1.21,0.39-2.87-0.99-5.62c-1.13-2.25-1.06-2.92,0.26-2.57c0.68,0.18,2.91,2,4.44,3.63 c3.85,4.09,5.76,7.8,6.68,12.97c0.48,2.71,0.52,7.2,0.08,9.54c-0.55,2.96-1.67,5.75-3.26,8.14c-1.77,2.66-5.47,6.04-8.17,7.44 c-1.21,0.63-1.64,0.67-2.23,0.2c-0.74-0.58-0.58-0.99,1.05-2.73c2.46-2.61,3.72-4.47,4.45-6.57c1.12-3.25,0.56-7.77-1.32-10.65 c-0.78-1.19-1.92-2.25-2.44-2.25c-0.28,0-0.24,0.37,0.29,2.29c0.18,0.67,0.33,1.49,0.33,1.83c0,1.76-2.48,3.03-4.66,2.39 c-1.78-0.52-2.56-2.13-2.32-4.78c0.07-0.82,0.14-2.31,0.14-3.31c0.01-1.76,0-1.85-0.56-2.96c-1.09-2.15-3.61-4.36-4.96-4.36 c-0.58,0-0.63,0.04-0.63,0.47c0,0.29,0.16,0.62,0.43,0.86c1.4,1.31,1.67,4,0.63,6.37c-0.64,1.47-1.37,2.3-3.85,4.4 c-3.26,2.77-4.31,4.09-4.97,6.23c-0.3,0.99-0.33,1.39-0.25,3.21c0.14,3.05,0.76,5.07,2.21,7.21c1.11,1.64,2.42,2.68,4.19,3.34 c0.85,0.32,0.95,0.4,0.95,0.83c0,0.5-0.38,0.82-0.94,0.81C57.97,64.86,57.17,64.62,56.35,64.32L56.35,64.32L56.35,64.32z"/></g></svg>