<svg width="48" height="48" viewBox="0 0 48 48" fill="none" xmlns="http://www.w3.org/2000/svg">
<path d="M6 26H8V40C8 42.206 9.794 44 12 44H36C38.206 44 40 42.206 40 40V26H42C42.3955 25.9999 42.7821 25.8826 43.1109 25.6628C43.4397 25.443 43.696 25.1307 43.8474 24.7653C43.9987 24.3999 44.0383 23.9978 43.9612 23.6099C43.884 23.222 43.6936 22.8657 43.414 22.586L25.414 4.58601C25.2284 4.40011 25.008 4.25264 24.7654 4.15202C24.5228 4.0514 24.2627 3.9996 24 3.9996C23.7373 3.9996 23.4772 4.0514 23.2346 4.15202C22.992 4.25264 22.7716 4.40011 22.586 4.58601L4.586 22.586C4.30638 22.8657 4.11597 23.222 4.03883 23.6099C3.9617 23.9978 4.00131 24.3999 4.15265 24.7653C4.30399 25.1307 4.56026 25.443 4.88908 25.6628C5.2179 25.8826 5.6045 25.9999 6 26ZM20 40V30H28V40H20ZM24 8.82801L36 20.828V30L36.002 40H32V30C32 27.794 30.206 26 28 26H20C17.794 26 16 27.794 16 30V40H12V20.828L24 8.82801Z" fill="#202020"/>
</svg>
