<svg width="48" height="48" viewBox="0 0 48 48" fill="none" xmlns="http://www.w3.org/2000/svg">
<path d="M3 14.25C3 11.352 5.352 9 8.25 9H39.75C42.648 9 45 11.352 45 14.25V33.75C45 35.1424 44.4469 36.4777 43.4623 37.4623C42.4777 38.4469 41.1424 39 39.75 39H8.25C6.85761 39 5.52226 38.4469 4.53769 37.4623C3.55312 36.4777 3 35.1424 3 33.75V14.25ZM8.25 12C7.65326 12 7.08097 12.2371 6.65901 12.659C6.23705 13.081 6 13.6533 6 14.25V33.75C6 34.992 7.008 36 8.25 36H39.75C40.3467 36 40.919 35.7629 41.341 35.341C41.7629 34.919 42 34.3467 42 33.75V14.25C42 13.6533 41.7629 13.081 41.341 12.659C40.919 12.2371 40.3467 12 39.75 12H8.25ZM28.5 18C28.1022 18 27.7206 18.158 27.4393 18.4393C27.158 18.7206 27 19.1022 27 19.5C27 19.8978 27.158 20.2794 27.4393 20.5607C27.7206 20.842 28.1022 21 28.5 21H37.5C37.8978 21 38.2794 20.842 38.5607 20.5607C38.842 20.2794 39 19.8978 39 19.5C39 19.1022 38.842 18.7206 38.5607 18.4393C38.2794 18.158 37.8978 18 37.5 18H28.5ZM28.5 27C28.1022 27 27.7206 27.158 27.4393 27.4393C27.158 27.7206 27 28.1022 27 28.5C27 28.8978 27.158 29.2794 27.4393 29.5607C27.7206 29.842 28.1022 30 28.5 30H37.5C37.8978 30 38.2794 29.842 38.5607 29.5607C38.842 29.2794 39 28.8978 39 28.5C39 28.1022 38.842 27.7206 38.5607 27.4393C38.2794 27.158 37.8978 27 37.5 27H28.5ZM15.783 23.142C16.3176 23.142 16.847 23.0367 17.3409 22.8321C17.8348 22.6275 18.2836 22.3277 18.6616 21.9496C19.0397 21.5716 19.3395 21.1228 19.5441 20.6289C19.7487 20.135 19.854 19.6056 19.854 19.071C19.854 18.5364 19.7487 18.007 19.5441 17.5131C19.3395 17.0192 19.0397 16.5704 18.6616 16.1924C18.2836 15.8143 17.8348 15.5145 17.3409 15.3099C16.847 15.1053 16.3176 15 15.783 15C14.7033 15 13.6678 15.4289 12.9044 16.1924C12.1409 16.9558 11.712 17.9913 11.712 19.071C11.712 20.1507 12.1409 21.1862 12.9044 21.9496C13.6678 22.7131 14.7033 23.142 15.783 23.142V23.142ZM11.574 25.176C10.8913 25.176 10.2366 25.4472 9.75391 25.9299C9.27119 26.4126 9 27.0673 9 27.75C9.0001 28.8672 9.37364 29.9524 10.0613 30.833C10.7489 31.7136 11.7111 32.3391 12.795 32.61L12.954 32.652C14.814 33.117 16.755 33.117 18.612 32.652L18.774 32.613C19.8579 32.3421 20.8201 31.7166 21.5077 30.836C22.1954 29.9554 22.5689 28.8702 22.569 27.753C22.5694 27.4147 22.5031 27.0797 22.3739 26.7671C22.2447 26.4544 22.0552 26.1703 21.8162 25.931C21.5771 25.6916 21.2932 25.5018 20.9807 25.3722C20.6682 25.2427 20.3333 25.176 19.995 25.176H11.574Z" fill="#202020"/>
</svg>
