<svg width="48" height="48" viewBox="0 0 48 48" fill="none" xmlns="http://www.w3.org/2000/svg">
<g clip-path="url(#clip0_54:7)">
<path d="M39.77 7.81201C39.515 7.8174 39.2678 7.9012 39.062 8.05201C38.902 8.21201 38.74 8.44401 38.74 8.67801C38.74 9.07801 39.212 9.62601 40.086 10.524C43.73 14.032 45.562 18.33 45.55 23.512C45.536 29.246 43.61 33.852 39.862 37.42C39.074 38.126 38.75 38.68 38.748 39.154C38.748 39.386 38.908 39.628 39.068 39.86C39.2591 40.0459 39.5084 40.1604 39.774 40.184C40.642 40.184 41.854 39.16 43.44 37.166C46.524 33.386 47.92 29.21 47.998 23.518C48.07 17.824 46.284 13.964 42.792 9.97801C41.532 8.55401 40.486 7.81401 39.77 7.81201V7.81201ZM8.232 7.81601C7.516 7.81601 6.468 8.55601 5.212 9.98201C1.716 13.968 -0.0699979 17.828 0.0020021 23.522C0.0820021 29.214 1.476 33.388 4.562 37.17C6.144 39.164 7.358 40.19 8.226 40.188C8.49117 40.165 8.74008 40.0505 8.93 39.864C9.09 39.632 9.25 39.39 9.25 39.158C9.25 38.684 8.926 38.13 8.138 37.426C4.392 33.856 2.464 29.252 2.45 23.516C2.438 18.334 4.27 14.036 7.914 10.528C8.788 9.63001 9.262 9.08401 9.26 8.68201C9.26 8.44801 9.1 8.21601 8.938 8.05601C8.73225 7.9052 8.48505 7.8214 8.23 7.81601H8.232ZM22.344 9.60601C22.344 9.60601 23.654 13.768 17.046 23.06C10.734 31.926 19.136 37.36 19.91 37.832C19.348 37.472 15.908 34.832 20.714 26.986C21.646 25.446 22.866 24.046 24.382 20.904C24.382 20.904 25.722 22.796 25.022 26.9C23.976 33.102 29.564 31.328 29.65 31.414C31.602 33.714 28.034 37.754 27.816 37.88C27.6 38.002 38.008 31.62 30.614 22.01C30.108 22.516 29.45 24.894 28.08 24.542C26.712 24.194 32.33 17.554 22.344 9.60601V9.60601ZM19.91 37.832C19.956 37.864 19.986 37.88 19.986 37.88L19.91 37.832Z" fill="#CECECE"/>
</g>
<defs>
<clipPath id="clip0_54:7">
<rect width="48" height="48" fill="white"/>
</clipPath>
</defs>
</svg>
