<svg width="48" height="48" viewBox="0 0 48 48" fill="none" xmlns="http://www.w3.org/2000/svg">
<g clip-path="url(#clip0_21:74)">
<path fill-rule="evenodd" clip-rule="evenodd" d="M22.744 0.379744C23.504 -0.126256 24.494 -0.126256 25.256 0.379744L46.984 14.7997C47.618 15.2197 48 15.9297 48 16.6917V31.3077C48 32.0677 47.62 32.7797 46.984 33.2017L25.256 47.6217C24.496 48.1257 23.506 48.1257 22.744 47.6217L1.016 33.1997C0.703769 32.9926 0.447614 32.7115 0.270348 32.3814C0.0930817 32.0513 0.000208468 31.6824 0 31.3077L0 16.6917C0 15.9317 0.38 15.2197 1.016 14.7977L22.744 0.379744ZM4.544 20.9257V27.0417L9.12 23.9617L4.544 20.9257V20.9257ZM13.218 26.6817L6.36 31.2957L21.728 41.4957V32.3297L13.22 26.6817H13.218ZM26.272 32.3297V41.4937L41.64 31.2937L34.78 26.6817L26.272 32.3297V32.3297ZM38.878 23.9637L43.458 27.0437V20.9237L38.878 23.9637V23.9637ZM41.62 16.6917L34.8 21.2177L26.272 15.4817V6.50574L41.62 16.6917ZM21.728 6.50574V15.4797L13.202 21.2157L6.38 16.6917L21.728 6.50574V6.50574ZM24 19.4297L17.3 23.9377L24 28.3837L30.7 23.9377L24 19.4297Z" fill="#CECECE"/>
</g>
<defs>
<clipPath id="clip0_21:74">
<rect width="48" height="48" fill="white"/>
</clipPath>
</defs>
</svg>
