<svg width="48" height="48" viewBox="0 0 48 48" fill="none" xmlns="http://www.w3.org/2000/svg">
<path fill-rule="evenodd" clip-rule="evenodd" d="M34 14C34 12.4087 33.3679 10.8826 32.2426 9.75736C31.1174 8.63214 29.5913 8 28 8H20C18.4087 8 16.8826 8.63214 15.7574 9.75736C14.6321 10.8826 14 12.4087 14 14H12C10.4087 14 8.88258 14.6321 7.75736 15.7574C6.63214 16.8826 6 18.4087 6 20V36C6 37.5913 6.63214 39.1174 7.75736 40.2426C8.88258 41.3679 10.4087 42 12 42H36C37.5913 42 39.1174 41.3679 40.2426 40.2426C41.3679 39.1174 42 37.5913 42 36V20C42 18.4087 41.3679 16.8826 40.2426 15.7574C39.1174 14.6321 37.5913 14 36 14H34ZM28 12H20C19.4696 12 18.9609 12.2107 18.5858 12.5858C18.2107 12.9609 18 13.4696 18 14H30C30 13.4696 29.7893 12.9609 29.4142 12.5858C29.0391 12.2107 28.5304 12 28 12ZM12 18H36C36.5304 18 37.0391 18.2107 37.4142 18.5858C37.7893 18.9609 38 19.4696 38 20V36C38 36.5304 37.7893 37.0391 37.4142 37.4142C37.0391 37.7893 36.5304 38 36 38H12C11.4696 38 10.9609 37.7893 10.5858 37.4142C10.2107 37.0391 10 36.5304 10 36V20C10 19.4696 10.2107 18.9609 10.5858 18.5858C10.9609 18.2107 11.4696 18 12 18Z" fill="#202020"/>
</svg>
