<svg width="48" height="48" viewBox="0 0 48 48" fill="none" xmlns="http://www.w3.org/2000/svg">
<path d="M8 4C6.93913 4 5.92172 4.42143 5.17157 5.17157C4.42143 5.92172 4 6.93913 4 8V32C4 33.0609 4.42143 34.0783 5.17157 34.8284C5.92172 35.5786 6.93913 36 8 36H16V42C16 42.5304 16.2107 43.0391 16.5858 43.4142C16.9609 43.7893 17.4696 44 18 44H19C19.5 44 20 43.8 20.4 43.42L27.8 36H40C41.0609 36 42.0783 35.5786 42.8284 34.8284C43.5786 34.0783 44 33.0609 44 32V8C44 6.93913 43.5786 5.92172 42.8284 5.17157C42.0783 4.42143 41.0609 4 40 4H8ZM8 8H40V32H26.16L20 38.16V32H8V8ZM24.38 11C22.6 11 21.18 11.36 20.1 12.08C19 12.8 18.44 14 18.54 15.38H22.48C22.48 14.82 22.68 14.4 23 14.12C23.4 13.84 23.84 13.7 24.38 13.7C25 13.7 25.54 13.86 25.9 14.22C26.26 14.56 26.44 15 26.44 15.6C26.44 16.16 26.28 16.66 26 17.08C25.66 17.52 25.24 17.88 24.72 18.16C23.68 18.8 23 19.36 22.58 19.84C22.2 20.32 22 21 22 22H26C26 21.44 26.1 21 26.28 20.64C26.46 20.3 26.8 20 27.32 19.7C28.24 19.28 29 18.72 29.58 18C30.16 17.26 30.46 16.48 30.46 15.6C30.46 14.2 29.92 13.08 28.84 12.24C27.76 11.42 26.26 11 24.38 11V11ZM22 24V28H26V24H22Z" fill="#202020"/>
</svg>
